<svg xmlns="http://www.w3.org/2000/svg" width="400" height="600" viewBox="0 0 400 600"><defs><filter id="b" width="100%" height="100%" x="0%" y="0%"><feTurbulence baseFrequency=".65" numOctaves="3" result="noise" stitchTiles="stitch" type="fractalNoise"/><feColorMatrix in="noise" result="greyNoise" type="saturate" values="0"/><feBlend in="SourceGraphic" in2="greyNoise" mode="multiply" result="grainBlend"/><feComponentTransfer in="grainBlend"><feFuncA slope=".12" type="linear"/></feComponentTransfer><feComposite in2="SourceGraphic" operator="atop"/></filter><filter id="c"><feGaussianBlur stdDeviation="1.5"/></filter><filter id="a"><feTurbulence baseFrequency="0.03 0.15" numOctaves="2" result="fiberNoise" seed="3" type="fractalNoise"/><feColorMatrix in="fiberNoise" values="0 0 0 0 0.72 0 0 0 0 0.68 0 0 0 0 0.62 0 0 0 -2.5 1.2"/></filter></defs><path fill="#eae2d9" d="M0 0h400v600H0z"/><path d="M0 0h400v600H0z" filter="url(#a)" opacity=".08"/><path d="M0 0h400v600H0z" filter="url(#b)" opacity=".15"/><g filter="url(#c)" opacity=".07" transform="translate(200 265)"><circle r="105" fill="none" stroke="#2a2a2a" stroke-dasharray="2 0.5" stroke-linecap="round" stroke-width="8"/><circle r="101" fill="none" stroke="#2a2a2a" stroke-width="2" opacity=".5"/><path fill="#2a2a2a" fill-rule="evenodd" d="M0-85-52 75h14l16-45h44l16 45h14Zm0 35-15 68h30Z"/><path stroke="#2a2a2a" stroke-linecap="round" stroke-width="7" d="M-58 80H58" opacity=".8"/></g><path stroke="#c4b8ac" stroke-width=".5" d="M80 420h240" opacity=".5"/><path stroke="#c4b8ac" stroke-width=".5" d="M80 425h240" opacity=".3"/><text x="200" y="455" fill="#9e9189" font-family="Georgia, 'Times New Roman', serif" font-size="16" font-style="italic" letter-spacing=".5" opacity=".7" text-anchor="middle">no cover available</text><text x="200" y="540" fill="#b5aaa0" font-family="Georgia, 'Times New Roman', serif" font-size="11" font-variant="small-caps" letter-spacing="3" opacity=".45" text-anchor="middle">JUST BOOKS</text><text x="200" y="556" fill="#b5aaa0" font-family="Georgia, 'Times New Roman', serif" font-size="9" font-variant="small-caps" letter-spacing="2" opacity=".35" text-anchor="middle">BELFAST</text><rect width="392" height="592" x="4" y="4" fill="none" stroke="#c4b8ac" stroke-width=".5" opacity=".3" rx="2" ry="2"/></svg>
